<svg width="155" height="155" viewBox="0 0 155 155" fill="none" xmlns="http://www.w3.org/2000/svg">
<path d="M34.1212 127.788L34.562 127.181L34.1212 127.788ZM27.2007 120.867L27.8075 120.426L27.2007 120.867ZM127.865 120.867L127.258 120.426L127.865 120.867ZM120.944 127.788L120.504 127.181L120.944 127.788ZM120.944 27.1236L120.504 27.7304L120.944 27.1236ZM127.865 34.044L127.258 34.4848L127.865 34.044ZM34.1212 27.1236L34.562 27.7304L34.1212 27.1236ZM27.2007 34.044L27.8075 34.4848L27.2007 34.044ZM108.143 89.6328C107.958 90.0032 108.108 90.4537 108.479 90.639C108.849 90.8242 109.3 90.6741 109.485 90.3036L108.143 89.6328ZM109.144 89.3077L108.473 88.9723L108.473 88.9723L109.144 89.3077ZM109.144 78.1162L108.473 78.4516L108.473 78.4516L109.144 78.1162ZM89.3745 89.6328C89.1892 90.0032 89.3394 90.4537 89.7099 90.639C90.0804 90.8242 90.5309 90.674 90.7161 90.3036L89.3745 89.6328ZM90.3755 89.3077L89.7047 88.9723L89.7047 88.9723L90.3755 89.3077ZM90.3756 78.1162L89.7047 78.4516L89.7047 78.4516L90.3756 78.1162ZM90.7161 77.1203C90.5309 76.7498 90.0804 76.5996 89.7099 76.7848C89.3394 76.9701 89.1892 77.4206 89.3745 77.7911L90.7161 77.1203ZM109.09 78.0085L108.42 78.3439L109.09 78.0085ZM77.5328 133.012C65.7865 133.012 57.037 133.011 50.1941 132.27C43.3652 131.53 38.5242 130.06 34.562 127.181L33.6803 128.394C37.9409 131.49 43.076 133.007 50.0325 133.761C56.9749 134.513 65.8199 134.512 77.5328 134.512V133.012ZM20.4766 77.4557C20.4766 89.1686 20.4755 98.0135 21.2277 104.956C21.9814 111.912 23.4985 117.048 26.594 121.308L27.8075 120.426C24.9288 116.464 23.4588 111.623 22.719 104.794C21.9776 97.9515 21.9766 89.202 21.9766 77.4557H20.4766ZM34.562 127.181C31.9701 125.298 29.6907 123.018 27.8075 120.426L26.594 121.308C28.5697 124.027 30.961 126.419 33.6803 128.394L34.562 127.181ZM133.089 77.4557C133.089 89.202 133.088 97.9515 132.347 104.794C131.607 111.623 130.137 116.464 127.258 120.426L128.472 121.308C131.567 117.048 133.084 111.912 133.838 104.956C134.59 98.0135 134.589 89.1686 134.589 77.4557H133.089ZM77.5328 134.512C89.2457 134.512 98.0907 134.513 105.033 133.761C111.99 133.007 117.125 131.49 121.385 128.394L120.504 127.181C116.541 130.06 111.7 131.53 104.872 132.27C98.0287 133.011 89.2791 133.012 77.5328 133.012V134.512ZM127.258 120.426C125.375 123.018 123.096 125.298 120.504 127.181L121.385 128.394C124.105 126.419 126.496 124.027 128.472 121.308L127.258 120.426ZM77.5328 21.8994C89.2791 21.8994 98.0287 21.9004 104.872 22.6418C111.7 23.3817 116.541 24.8516 120.504 27.7304L121.385 26.5168C117.125 23.4214 111.99 21.9042 105.033 21.1506C98.0907 20.3984 89.2457 20.3994 77.5328 20.3994V21.8994ZM134.589 77.4557C134.589 65.7427 134.59 56.8978 133.838 49.9554C133.084 42.9989 131.567 37.8637 128.472 33.6032L127.258 34.4848C130.137 38.4471 131.607 43.2881 132.347 50.1169C133.088 56.9598 133.089 65.7093 133.089 77.4557H134.589ZM120.504 27.7304C123.096 29.6135 125.375 31.8929 127.258 34.4848L128.472 33.6032C126.496 30.8839 124.105 28.4925 121.385 26.5168L120.504 27.7304ZM77.5328 20.3994C65.8199 20.3994 56.9749 20.3984 50.0325 21.1506C43.076 21.9042 37.9409 23.4214 33.6803 26.5168L34.562 27.7304C38.5242 24.8516 43.3652 23.3817 50.1941 22.6418C57.037 21.9004 65.7865 21.8994 77.5328 21.8994V20.3994ZM21.9766 77.4557C21.9766 65.7093 21.9776 56.9598 22.719 50.1169C23.4588 43.2881 24.9288 38.4471 27.8075 34.4848L26.594 33.6032C23.4985 37.8637 21.9814 42.9989 21.2277 49.9554C20.4755 56.8978 20.4766 65.7427 20.4766 77.4557H21.9766ZM33.6803 26.5168C30.961 28.4925 28.5697 30.8839 26.594 33.6032L27.8075 34.4848C29.6907 31.8929 31.9701 29.6135 34.562 27.7304L33.6803 26.5168ZM70.5266 77.4557C70.5266 83.9519 65.2603 89.2182 58.7641 89.2182V90.7182C66.0887 90.7182 72.0266 84.7803 72.0266 77.4557H70.5266ZM58.7641 89.2182C52.2678 89.2182 47.0016 83.9519 47.0016 77.4557H45.5016C45.5016 84.7803 51.4394 90.7182 58.7641 90.7182V89.2182ZM47.0016 77.4557C47.0016 70.9594 52.2678 65.6932 58.7641 65.6932V64.1932C51.4394 64.1932 45.5016 70.131 45.5016 77.4557H47.0016ZM58.7641 65.6932C65.2603 65.6932 70.5266 70.9594 70.5266 77.4557H72.0266C72.0266 70.131 66.0887 64.1932 58.7641 64.1932V65.6932ZM71.2766 78.2057H108.196V76.7057H71.2766V78.2057ZM109.485 90.3036L109.815 89.6431L108.473 88.9723L108.143 89.6328L109.485 90.3036ZM109.815 77.7807L109.761 77.673L108.42 78.3439L108.473 78.4516L109.815 77.7807ZM109.815 89.6431C111.682 85.9093 111.682 81.5145 109.815 77.7807L108.473 78.4516C110.129 81.763 110.129 85.6608 108.473 88.9723L109.815 89.6431ZM90.7161 90.3036L91.0464 89.6431L89.7047 88.9723L89.3745 89.6328L90.7161 90.3036ZM91.0464 77.7807L90.7161 77.1203L89.3745 77.7911L89.7047 78.4516L91.0464 77.7807ZM91.0464 89.6431C92.9132 85.9093 92.9133 81.5145 91.0464 77.7807L89.7047 78.4516C91.3605 81.763 91.3605 85.6608 89.7047 88.9723L91.0464 89.6431ZM108.196 78.2057C108.291 78.2057 108.377 78.2592 108.42 78.3439L109.761 77.673C109.465 77.0802 108.859 76.7057 108.196 76.7057V78.2057Z" fill="white"/>
<circle cx="128.957" cy="26.0409" r="23.66" fill="url(#paint0_linear_3827_861)"/>
<defs>
<linearGradient id="paint0_linear_3827_861" x1="105.202" y1="49.7568" x2="171.688" y2="52.0089" gradientUnits="userSpaceOnUse">
<stop stop-color="#A783C9"/>
<stop offset="1" stop-color="#2A1792"/>
</linearGradient>
</defs>
</svg>
