<svg width="56" height="56" viewBox="0 0 56 56" fill="none" xmlns="http://www.w3.org/2000/svg">
<g clip-path="url(#clip0_92_88)">
<rect width="56" height="56" rx="14" fill="white"/>
<circle cx="7.87262" cy="41.0919" r="41.5381" transform="rotate(-0.403168 7.87262 41.0919)" fill="url(#paint0_linear_92_88)" stroke="url(#paint1_linear_92_88)" stroke-width="0.085853"/>
<circle opacity="0.4" cx="39.0906" cy="20.7751" r="41.5381" transform="rotate(-0.403168 39.0906 20.7751)" fill="url(#paint2_linear_92_88)" stroke="url(#paint3_radial_92_88)" stroke-width="0.085853"/>
<path fill-rule="evenodd" clip-rule="evenodd" d="M26.4527 14.9074C25.6248 14.5645 24.7137 14.4747 23.8347 14.6496C22.9557 14.8244 22.1483 15.256 21.5146 15.8897C20.8809 16.5234 20.4494 17.3308 20.2745 18.2097C20.0997 19.0887 20.1894 19.9998 20.5324 20.8278C20.6683 21.1559 20.8416 21.4652 21.0476 21.75C20.501 21.75 20.0867 21.7531 19.7178 21.8116C17.5783 22.1504 15.9004 23.8284 15.5615 25.9678C15.4996 26.3588 15.4997 26.8006 15.4999 27.3968L15.4999 27.5839C15.4997 27.9645 15.4995 28.2921 15.5461 28.5866C15.764 29.9624 16.7203 31.0838 17.9999 31.5358L17.9999 33.265C17.9999 34.2882 17.9999 35.1326 18.057 35.8201C18.1163 36.5343 18.2437 37.1903 18.5629 37.8049C19.0373 38.7181 19.7819 39.4627 20.6951 39.9371C21.3096 40.2563 21.9657 40.3836 22.6799 40.4429C23.3673 40.5 24.2117 40.5 25.2349 40.5H30.765C31.7881 40.5 32.6326 40.5 33.32 40.4429C34.0342 40.3836 34.6903 40.2563 35.3048 39.9371C36.218 39.4627 36.9626 38.7181 37.437 37.8049C37.7562 37.1903 37.8836 36.5343 37.9429 35.8201C38 35.1326 38 34.2882 37.9999 33.2651V31.5358C39.2796 31.0838 40.2359 29.9624 40.4538 28.5866C40.5004 28.2921 40.5002 27.9645 40.5 27.5839L40.5 27.3969C40.5002 26.8007 40.5003 26.3587 40.4384 25.9678C40.0995 23.8284 38.4216 22.1504 36.2821 21.8116C35.9132 21.7531 35.4989 21.75 34.9523 21.75C35.1583 21.4652 35.3316 21.1559 35.4675 20.8278C35.8105 19.9998 35.9002 19.0887 35.7254 18.2097C35.5505 17.3308 35.119 16.5234 34.4853 15.8897C33.8516 15.256 33.0442 14.8244 32.1652 14.6496C31.2862 14.4747 30.3751 14.5645 29.5472 14.9074C28.9604 15.1505 28.434 15.513 28 15.9688C27.5659 15.513 27.0395 15.1505 26.4527 14.9074ZM26.7499 24.25H21.2499C20.5054 24.25 20.2787 24.2539 20.1089 24.2808C19.0391 24.4502 18.2002 25.2892 18.0307 26.3589C18.0038 26.5288 17.9999 26.7555 17.9999 27.5C17.9999 28.0123 18.0038 28.1229 18.0153 28.1955C18.1001 28.7304 18.5195 29.1499 19.0544 29.2346C19.1271 29.2461 19.2377 29.25 19.7499 29.25H26.7499V24.25ZM29.2499 29.25V24.25H34.7499C35.4945 24.25 35.7212 24.2539 35.891 24.2808C36.9608 24.4502 37.7997 25.2892 37.9692 26.3589C37.9961 26.5288 37.9999 26.7555 37.9999 27.5C37.9999 28.0123 37.9961 28.1229 37.9846 28.1955C37.8998 28.7304 37.5004 29.1499 36.9455 29.2346C36.8728 29.2461 36.7622 29.25 36.2499 29.25H29.2499ZM26.7499 31.75H20.4999V33.2125C20.4999 34.3013 20.501 35.0414 20.5484 35.6132C20.5947 36.17 20.6784 36.4542 20.7814 36.6524C21.0186 37.109 21.3909 37.4813 21.8475 37.7185C22.0457 37.8215 22.33 37.9053 22.8868 37.9515C23.4585 37.999 24.1987 38 25.2874 38H26.7499V31.75ZM29.2499 38V31.75H35.4999V33.2125C35.4999 34.3013 35.4989 35.0414 35.4515 35.6132C35.4052 36.17 35.3215 36.4542 35.2185 36.6524C34.9813 37.109 34.609 37.4813 34.1524 37.7185C33.9542 37.8215 33.6699 37.9053 33.1131 37.9515C32.5414 37.999 31.8012 38 30.7124 38H29.2499ZM31.2812 21.125H29.25V19.0938C29.25 18.692 29.3691 18.2993 29.5923 17.9653C29.8155 17.6312 30.1327 17.3709 30.5039 17.2171C30.875 17.0634 31.2835 17.0232 31.6775 17.1015C32.0715 17.1799 32.4334 17.3734 32.7175 17.6574C33.0016 17.9415 33.195 18.3035 33.2734 18.6975C33.3518 19.0915 33.3116 19.4999 33.1578 19.8711C33.0041 20.2422 32.7437 20.5595 32.4097 20.7827C32.0757 21.0059 31.6829 21.125 31.2812 21.125ZM26.4076 17.9653C26.6308 18.2993 26.75 18.692 26.75 19.0938V21.125H24.7187C24.317 21.125 23.9242 21.0059 23.5902 20.7827C23.2562 20.5595 22.9958 20.2422 22.8421 19.8711C22.6883 19.4999 22.6481 19.0915 22.7265 18.6975C22.8049 18.3035 22.9983 17.9415 23.2824 17.6574C23.5665 17.3734 23.9284 17.1799 24.3224 17.1015C24.7164 17.0232 25.1249 17.0634 25.496 17.2171C25.8672 17.3709 26.1844 17.6312 26.4076 17.9653Z" fill="#252432"/>
</g>
<defs>
<linearGradient id="paint0_linear_92_88" x1="7.87262" y1="-0.489174" x2="7.87262" y2="82.673" gradientUnits="userSpaceOnUse">
<stop stop-color="#DAE2FF" stop-opacity="0.56"/>
<stop offset="1" stop-color="white" stop-opacity="0.2"/>
</linearGradient>
<linearGradient id="paint1_linear_92_88" x1="51.4246" y1="36.9578" x2="-44.9089" y2="58.3012" gradientUnits="userSpaceOnUse">
<stop stop-color="#B5C2FB"/>
<stop offset="1" stop-color="#B5C2FB" stop-opacity="0"/>
</linearGradient>
<linearGradient id="paint2_linear_92_88" x1="39.0906" y1="-20.806" x2="39.0906" y2="62.3561" gradientUnits="userSpaceOnUse">
<stop stop-color="#B4C4FF" stop-opacity="0.5"/>
<stop offset="0.9999" stop-color="#E1E8FF" stop-opacity="0.0821875"/>
<stop offset="1" stop-color="#4C5C99" stop-opacity="0.08"/>
</linearGradient>
<radialGradient id="paint3_radial_92_88" cx="0" cy="0" r="1" gradientUnits="userSpaceOnUse" gradientTransform="translate(39.0906 20.7751) rotate(89.968) scale(86.1425)">
<stop offset="0.046875" stop-color="#B5C2FB" stop-opacity="0"/>
<stop offset="1" stop-color="#B5C2FB"/>
</radialGradient>
<clipPath id="clip0_92_88">
<rect width="56" height="56" rx="14" fill="white"/>
</clipPath>
</defs>
</svg>
