<svg width="56" height="56" viewBox="0 0 56 56" fill="none" xmlns="http://www.w3.org/2000/svg">
<g clip-path="url(#clip0_92_95)">
<rect width="56" height="56" rx="14" fill="white"/>
<circle cx="7.87262" cy="41.0919" r="41.5381" transform="rotate(-0.403168 7.87262 41.0919)" fill="url(#paint0_linear_92_95)" stroke="url(#paint1_linear_92_95)" stroke-width="0.085853"/>
<circle opacity="0.4" cx="39.0906" cy="20.7751" r="41.5381" transform="rotate(-0.403168 39.0906 20.7751)" fill="url(#paint2_linear_92_95)" stroke="url(#paint3_radial_92_95)" stroke-width="0.085853"/>
<path d="M40 28C40 34.6274 34.6274 40 28 40C21.3726 40 16 34.6274 16 28C16 21.3726 21.3726 16 28 16M34.6667 28C34.6667 31.6819 31.6819 34.6667 28 34.6667C24.3181 34.6667 21.3333 31.6819 21.3333 28C21.3333 24.3181 24.3181 21.3333 28 21.3333M31.6772 24.4688L36.9558 25.0232L39.8172 21.0172L36.3835 19.8727L35.239 16.439L31.233 19.3004L31.6772 24.4688ZM31.6772 24.4688L28 27.9999" stroke="#252432" stroke-width="2" stroke-linecap="round" stroke-linejoin="round"/>
</g>
<defs>
<linearGradient id="paint0_linear_92_95" x1="7.87262" y1="-0.489174" x2="7.87262" y2="82.673" gradientUnits="userSpaceOnUse">
<stop stop-color="#DAE2FF" stop-opacity="0.56"/>
<stop offset="1" stop-color="white" stop-opacity="0.2"/>
</linearGradient>
<linearGradient id="paint1_linear_92_95" x1="51.4246" y1="36.9578" x2="-44.9089" y2="58.3012" gradientUnits="userSpaceOnUse">
<stop stop-color="#B5C2FB"/>
<stop offset="1" stop-color="#B5C2FB" stop-opacity="0"/>
</linearGradient>
<linearGradient id="paint2_linear_92_95" x1="39.0906" y1="-20.806" x2="39.0906" y2="62.3561" gradientUnits="userSpaceOnUse">
<stop stop-color="#B4C4FF" stop-opacity="0.5"/>
<stop offset="0.9999" stop-color="#E1E8FF" stop-opacity="0.0821875"/>
<stop offset="1" stop-color="#4C5C99" stop-opacity="0.08"/>
</linearGradient>
<radialGradient id="paint3_radial_92_95" cx="0" cy="0" r="1" gradientUnits="userSpaceOnUse" gradientTransform="translate(39.0906 20.7751) rotate(89.968) scale(86.1425)">
<stop offset="0.046875" stop-color="#B5C2FB" stop-opacity="0"/>
<stop offset="1" stop-color="#B5C2FB"/>
</radialGradient>
<clipPath id="clip0_92_95">
<rect width="56" height="56" rx="14" fill="white"/>
</clipPath>
</defs>
</svg>
