<svg width="22" height="22" viewBox="0 0 22 22" fill="none" xmlns="http://www.w3.org/2000/svg">
<path d="M8.88061 8.87988C8.58587 9.15453 8.34946 9.48573 8.18549 9.85373C8.02152 10.2217 7.93336 10.619 7.92625 11.0218C7.91914 11.4246 7.99324 11.8247 8.14412 12.1983C8.29501 12.5718 8.51959 12.9112 8.80446 13.196C9.08934 13.5009 9.42867 13.7055 9.80222 13.8564C10.1758 14.0073 10.5759 14.0814 10.9787 14.0742C11.3815 14.0671 11.7788 13.979 12.1468 13.815C12.5148 13.651 12.846 13.4146 13.1206 13.1199" stroke="#70707B" stroke-width="2" stroke-linecap="round" stroke-linejoin="round"/>
<path d="M9.73047 4.08C10.1518 4.02751 10.5759 4.00079 11.0005 4C18.0005 4 21.0005 11 21.0005 11C20.5534 11.9571 19.9927 12.8569 19.3305 13.68" stroke="#70707B" stroke-width="2" stroke-linecap="round" stroke-linejoin="round"/>
<path d="M5.61 5.61035C3.62125 6.96498 2.02987 8.82561 1 11.0004C1 11.0004 4 18.0004 11 18.0004C12.9159 18.0055 14.7908 17.4455 16.39 16.3904" stroke="#70707B" stroke-width="2" stroke-linecap="round" stroke-linejoin="round"/>
<path d="M1 1L21 21" stroke="#70707B" stroke-width="2" stroke-linecap="round" stroke-linejoin="round"/>
</svg>
