<svg width="44" height="44" viewBox="0 0 44 44" fill="none" xmlns="http://www.w3.org/2000/svg">
<path fill-rule="evenodd" clip-rule="evenodd" d="M37 16V26.2489L36.9975 26.7785C36.9614 30.4667 36.539 31.8831 35.7756 33.3105C34.9767 34.8044 33.8044 35.9767 32.3105 36.7756L32.1112 36.8799C30.6799 37.6115 29.1534 38 25.2489 38H15V16H37Z" fill="url(#paint0_linear_193_740)"/>
<path fill-rule="evenodd" clip-rule="evenodd" d="M39.3105 1.22436C40.8044 2.02327 41.9767 3.19563 42.7756 4.68946L42.8799 4.88879C43.6115 6.32014 44 7.84662 44 11.7511V22H22V0H32.2489C36.335 0 37.8167 0.425451 39.3105 1.22436Z" fill="#F9881F"/>
<path fill-rule="evenodd" clip-rule="evenodd" d="M22 0V44H11.7511L11.2215 43.9975C7.53328 43.9614 6.11689 43.539 4.68946 42.7756C3.19563 41.9767 2.02327 40.8044 1.22436 39.3105L1.12006 39.1112C0.388473 37.6799 0 36.1534 0 32.2489V11.7511C0 7.66501 0.425451 6.18328 1.22436 4.68946C2.02327 3.19563 3.19563 2.02327 4.68946 1.22436L4.88879 1.12005C6.32014 0.388473 7.84662 0 11.7511 0H22Z" fill="url(#paint1_linear_193_740)"/>
<defs>
<linearGradient id="paint0_linear_193_740" x1="26" y1="16" x2="37" y2="38" gradientUnits="userSpaceOnUse">
<stop stop-color="#DEF2FE"/>
<stop offset="1" stop-color="#DBF1FE"/>
</linearGradient>
<linearGradient id="paint1_linear_193_740" x1="0" y1="0" x2="35.4235" y2="17.7117" gradientUnits="userSpaceOnUse">
<stop stop-color="#F9881F"/>
<stop offset="1" stop-color="#FF774C"/>
</linearGradient>
</defs>
</svg>
