<svg width="39" height="44" viewBox="0 0 39 44" fill="none" xmlns="http://www.w3.org/2000/svg">
<path fill-rule="evenodd" clip-rule="evenodd" d="M32 15V25.2489L31.9975 25.7785C31.9614 29.4667 31.539 30.8831 30.7756 32.3105C29.9767 33.8044 28.8044 34.9767 27.3105 35.7756L27.1112 35.8799C25.6799 36.6115 24.1534 37 20.2489 37H10V15H32Z" fill="url(#paint0_linear_195_241)"/>
<path fill-rule="evenodd" clip-rule="evenodd" d="M32.179 1.22436C34.3518 2.02327 36.0571 3.19563 37.2191 4.68946L37.3708 4.88879C38.4349 6.32014 39 7.84662 39 11.7511V16C39 19.3137 36.3137 22 33 22H13C9.68629 22 7 19.3137 7 16V6C7 2.68629 9.68629 0 13 0H21.9074C27.8509 0 30.0061 0.425451 32.179 1.22436Z" fill="#F9881F"/>
<path fill-rule="evenodd" clip-rule="evenodd" d="M13 0C16.866 0 20 3.13401 20 7V37C20 40.866 16.866 44 13 44H10.6829L10.2014 43.9975C6.84844 43.9614 5.56081 43.539 4.26314 42.7756C2.90512 41.9767 1.83933 40.8044 1.11305 39.3105L1.01823 39.1112C0.353158 37.6799 0 36.1534 0 32.2489V11.7511C0 7.66501 0.386773 6.18328 1.11305 4.68946C1.83933 3.19563 2.90512 2.02327 4.26314 1.22436L4.44436 1.12005C5.74558 0.388473 7.13329 0 10.6829 0H13Z" fill="url(#paint1_linear_195_241)"/>
<defs>
<linearGradient id="paint0_linear_195_241" x1="21" y1="15" x2="32" y2="37" gradientUnits="userSpaceOnUse">
<stop stop-color="#DEF2FE"/>
<stop offset="1" stop-color="#DBF1FE"/>
</linearGradient>
<linearGradient id="paint1_linear_195_241" x1="0" y1="0" x2="33.3611" y2="15.1641" gradientUnits="userSpaceOnUse">
<stop stop-color="#F9881F"/>
<stop offset="1" stop-color="#FF774C"/>
</linearGradient>
</defs>
</svg>
