<svg width="24" height="24" viewBox="0 0 24 24" fill="none" xmlns="http://www.w3.org/2000/svg">
<circle cx="12" cy="12" r="12" fill="#343536"/>
<path d="M17.0121 12.7241L12.0106 17.6776L7.00898 12.7241C6.67908 12.403 6.41922 12.0172 6.24577 11.5908C6.07232 11.1644 5.98904 10.7067 6.00116 10.2466C6.01328 9.78643 6.12054 9.33376 6.3162 8.9171C6.51186 8.50044 6.79167 8.1288 7.13801 7.82558C7.48436 7.52237 7.88973 7.29416 8.32861 7.15531C8.76748 7.01646 9.23035 6.96998 9.68807 7.01881C10.1458 7.06764 10.5884 7.21071 10.9882 7.43901C11.3879 7.66732 11.736 7.97591 12.0106 8.34536C12.2863 7.97859 12.6348 7.6727 13.0343 7.44682C13.4337 7.22093 13.8755 7.07993 14.3319 7.03263C14.7883 6.98533 15.2496 7.03275 15.6869 7.17192C16.1242 7.31109 16.528 7.53902 16.8731 7.84145C17.2182 8.14387 17.4972 8.51427 17.6926 8.92947C17.888 9.34468 17.9956 9.79574 18.0087 10.2544C18.0217 10.7131 17.9399 11.1696 17.7685 11.5952C17.597 12.0209 17.3395 12.4065 17.0121 12.7281" stroke="black" stroke-linecap="round" stroke-linejoin="round"/>
</svg>
