<svg width="246" height="31" viewBox="0 0 246 31" fill="none" xmlns="http://www.w3.org/2000/svg">
<path fill-rule="evenodd" clip-rule="evenodd" d="M116.696 0.0785854C101.409 0.72704 72.0574 6.68805 44.4474 14.7513C42.2209 15.4016 39.2877 16.2588 37.9292 16.6562C19.6101 22.0156 9.75793 25.3954 2.8617 28.6864C0.170311 29.9709 -0.0609119 30.1266 0.0103077 30.6065C0.114324 31.3068 0.552208 31.1986 5.54623 29.239C10.714 27.2113 15.3459 25.7389 28.049 22.086C70.5056 9.87702 90.336 5.40123 112.579 3.00724C116.938 2.53805 123.9 2.61976 123.9 3.14001C123.9 3.83495 119.534 6.20499 109.423 10.9974C96.9851 16.8934 89.4132 20.8044 88.7425 21.6795C87.5967 23.1748 88.857 24.2538 91.584 24.1124C93.1424 24.0316 93.4963 23.9704 100.641 22.5476C121.154 18.4622 134.264 16.3888 152.032 14.4197C179.089 11.421 196.329 10.3148 228.74 9.49715C240.386 9.20344 240.989 9.16244 243.138 8.51936C243.967 8.27147 244.957 8.02922 245.338 7.9809C246.231 7.86789 246.22 7.72333 245.31 7.61673C244.914 7.57025 244.003 7.34843 243.286 7.12372C241.518 6.56968 240.346 6.54074 230.25 6.80159C196.403 7.67593 178.593 8.79409 152.786 11.665C139.214 13.1748 133.166 13.9952 123.283 15.6672C116.527 16.8101 98.6931 20.1375 96.1949 20.7211C94.8319 21.0396 100.749 18.0353 111.141 13.1323C124.287 6.93004 126.904 5.24553 126.916 2.97948C126.93 0.424159 124.541 -0.254022 116.696 0.0785854Z" fill="url(#paint0_linear_53_44)"/>
<defs>
<linearGradient id="paint0_linear_53_44" x1="0" y1="0" x2="246" y2="31" gradientUnits="userSpaceOnUse">
<stop stop-color="#F9881F"/>
<stop offset="1" stop-color="#FF774C"/>
</linearGradient>
</defs>
</svg>
